<?xml version="1.0" encoding="UTF-8" standalone="no"?>
<svg
   xmlns:dc="http://purl.org/dc/elements/1.1/"
   xmlns:cc="http://creativecommons.org/ns#"
   xmlns:rdf="http://www.w3.org/1999/02/22-rdf-syntax-ns#"
   xmlns:svg="http://www.w3.org/2000/svg"
   xmlns="http://www.w3.org/2000/svg"
   xmlns:sodipodi="http://sodipodi.sourceforge.net/DTD/sodipodi-0.dtd"
   xmlns:inkscape="http://www.inkscape.org/namespaces/inkscape"
   width="1400pt"
   height="1400pt"
   viewBox="0 0 1400 1400"
   version="1.2"
   id="svg18"
   sodipodi:docname="logo_cdg.svg"
   inkscape:version="0.92.4 (f8dce91, 2019-08-02)">
  <metadata
     id="metadata22">
    <rdf:RDF>
      <cc:Work
         rdf:about="">
        <dc:format>image/svg+xml</dc:format>
        <dc:type
           rdf:resource="http://purl.org/dc/dcmitype/StillImage" />
        <dc:title></dc:title>
      </cc:Work>
    </rdf:RDF>
  </metadata>
  <sodipodi:namedview
     pagecolor="#ffffff"
     bordercolor="#666666"
     borderopacity="1"
     objecttolerance="10"
     gridtolerance="10"
     guidetolerance="10"
     inkscape:pageopacity="0"
     inkscape:pageshadow="2"
     inkscape:window-width="1871"
     inkscape:window-height="1056"
     id="namedview20"
     showgrid="false"
     inkscape:pagecheckerboard="true"
     inkscape:zoom="0.15835482"
     inkscape:cx="859.67611"
     inkscape:cy="745.16203"
     inkscape:window-x="49"
     inkscape:window-y="24"
     inkscape:window-maximized="1"
     inkscape:current-layer="svg18" />
  <defs
     id="defs5">
    <clipPath
       id="clip1">
      <path
         d="M 0,0 H 1289.5156 V 1117.7422 H 0 Z m 0,0"
         id="path2"
         inkscape:connector-curvature="0" />
    </clipPath>
  </defs>
  <g
     id="g839"
     transform="translate(55.242215,-41.128035)">
    <g
       transform="translate(0,182.25695)"
       clip-path="url(#clip1)"
       id="g9"
       style="clip-rule:nonzero">
      <path
         style="fill:#c73535;fill-opacity:1;fill-rule:nonzero;stroke:none"
         d="M 323.23828,1117.7422 0,559.86328 321.51953,0.992188 966.27734,0 1289.5156,557.87891 967.99219,1116.7539 Z m 0,0"
         id="path7"
         inkscape:connector-curvature="0" />
    </g>
    <path
       style="fill:#ffffff;fill-opacity:1;fill-rule:nonzero;stroke:none"
       d="m 265.83594,816.01476 c -20.77344,-12 -37.08594,-25.82422 -48.9375,-41.46875 -11.85547,-15.63672 -19.71485,-32.48047 -23.57813,-50.53125 -3.86719,-18.05078 -3.72656,-36.75781 0.42188,-56.125 4.14453,-19.375 11.92968,-38.95703 23.35937,-58.75 11.42578,-19.78906 24.78516,-36.26562 40.07813,-49.42187 15.30078,-13.15625 31.69531,-22.70313 49.1875,-28.64063 17.5,-5.94531 35.86718,-7.875 55.10937,-5.78125 19.23828,2.09375 38.25391,8.57031 57.04688,19.42188 11.53906,6.66797 22.50781,14.32422 32.90625,22.96875 10.40625,8.63672 19.64843,18.14062 27.73437,28.51562 l -32.96875,33.07813 c -5.02344,-7.30078 -11.49609,-14.55469 -19.42187,-21.76563 -7.91797,-7.20703 -16.99219,-13.76562 -27.21875,-19.67187 -25.71875,-14.84375 -50.08985,-18.13282 -73.10938,-9.875 -23.01172,8.25 -43.46484,27.875 -61.35937,58.875 -8,13.85547 -13.76563,27.45312 -17.29688,40.79687 -3.52344,13.34375 -4.28906,26.08985 -2.29687,38.23438 2,12.14453 6.99218,23.48828 14.98437,34.03125 7.98828,10.55078 19.56641,20.20703 34.73438,28.96875 12.19531,7.03906 23.90625,12.25781 35.125,15.65625 11.22656,3.40625 20.41015,5.41406 27.54687,6.03125 l -15.85937,42.28125 c -3.57422,0.125 -8.26563,-0.5 -14.07813,-1.875 -5.80469,-1.36719 -12.17187,-3.28125 -19.10937,-5.75 -6.92969,-2.46094 -14.17969,-5.32422 -21.75,-8.59375 -7.57422,-3.27344 -14.65625,-6.8086 -21.25,-10.60938 z m 0,0"
       id="path11"
       inkscape:connector-curvature="0" />
    <path
       style="fill:#ffffff;fill-opacity:1;fill-rule:nonzero;stroke:none"
       d="m 664.91406,768.07726 c -2.9375,-7.84375 -8.44922,-16.95312 -16.53125,-27.32812 -8.07422,-10.38282 -18.375,-19.19532 -30.90625,-26.4375 -13.1875,-7.61328 -25.86719,-11.74219 -38.03125,-12.39063 -12.15625,-0.64453 -23.63281,1.52735 -34.42187,6.51563 -10.78125,4.98047 -20.82813,12.48047 -30.14063,22.5 -9.30469,10.02343 -17.76172,21.625 -25.375,34.8125 -17.32422,30.01172 -23.27734,57.46484 -17.85937,82.35937 5.41406,24.88281 20.49218,44.46875 45.23437,58.75 12.53125,7.22656 23.33203,12.69141 32.40625,16.39063 9.07031,3.69531 16.29688,6.22265 21.67188,7.57812 z m 99.95313,-173.125 50.57812,18.65625 -217.34375,376.42188 c -12.25,-3.125 -27.48047,-7.96485 -45.6875,-14.51563 -18.21094,-6.55469 -38.03125,-16.01562 -59.46875,-28.39062 -19.78125,-11.41797 -35.77734,-24.82813 -47.98437,-40.23438 -12.21094,-15.40625 -20.58985,-32.12109 -25.14063,-50.14062 -4.54297,-18.00782 -5.05859,-37.09766 -1.54687,-57.26563 3.50781,-20.17578 11.25781,-40.65625 23.25,-61.4375 11.42578,-19.78906 24.45703,-36.45312 39.09375,-49.98437 14.63281,-13.53125 30.32031,-23.375 47.0625,-29.53125 16.75,-6.16407 34.19531,-8.40625 52.34375,-6.71875 18.15625,1.6875 36.46875,7.86718 54.9375,18.53125 14.84375,8.5625 26.80468,18.10547 35.89062,28.625 9.09375,10.52343 15.39453,19.21484 18.90625,26.07812 z m 0,0"
       id="path13"
       inkscape:connector-curvature="0" />
    <path
       style="fill:#ffffff;fill-opacity:1;fill-rule:nonzero;stroke:none"
       d="m 849.49219,1110.7648 c -5.48047,0.3515 -15.10157,-0.6954 -28.85938,-3.1407 -13.75,-2.4492 -28.21094,-8.0547 -43.375,-16.8125 -15.49219,-8.9492 -28.65234,-19.8437 -39.48437,-32.6875 -10.83594,-12.8437 -18.36719,-27.4062 -22.59375,-43.6875 -4.23047,-16.28903 -4.83985,-33.8984 -1.82813,-52.82809 3.00781,-18.92578 10.70313,-39.10937 23.07813,-60.54687 10.85156,-18.78907 23.60937,-34.39844 38.26562,-46.82813 14.65625,-12.4375 30.625,-21.25 47.90625,-26.4375 17.28125,-5.1875 35.52344,-6.51953 54.73438,-4 19.21875,2.51172 38.55468,9.38672 58.01562,20.625 21.4375,12.375 39.24219,24.75 53.42188,37.125 14.17576,12.36719 25.94526,23.00781 35.31246,31.92188 L 891.57031,1142.9835 c -22.84375,39.5625 -49.63281,62.3437 -80.35937,68.3437 -30.71875,6.0078 -66.85547,-2.9805 -108.40625,-26.9687 -16.16797,-9.3359 -30.66407,-19.4609 -43.48438,-30.375 -12.82422,-10.918 -23.46484,-21.2422 -31.92187,-30.9687 l 31.5625,-35.2032 c 7.125,8.9571 16.55468,18.6914 28.29687,29.2032 11.73828,10.5195 24.86328,19.9687 39.375,28.3437 27.375,15.8008 50.21875,21.7344 68.53125,17.7969 18.3125,-3.9375 34.32813,-17.7774 48.04688,-41.5156 z m 109.75,-191.21879 c -3.85547,-3.97656 -9.32422,-8.78125 -16.40625,-14.40625 -7.08594,-5.63281 -17.21875,-12.25781 -30.40625,-19.875 -24.74219,-14.28125 -48.45313,-17.19531 -71.14063,-8.75 -22.67969,8.44922 -41.73047,26.02735 -57.15625,52.73438 -8.5625,14.84375 -13.99609,28.64062 -16.29687,41.39062 -2.30469,12.74219 -2.24219,24.42969 0.1875,35.06254 2.4375,10.6367 6.91015,20.0234 13.42187,28.1718 6.50781,8.1563 14.21094,14.8047 23.10938,19.9532 12.19531,7.039 24.40625,11.7812 36.625,14.2187 12.22656,2.4375 22.64062,3.0625 31.23437,1.875 z m 0,0"
       id="path15"
       inkscape:connector-curvature="0" />
  </g>
</svg>
