<?xml version="1.0" encoding="UTF-8" standalone="no"?>
<svg
   xmlns:dc="http://purl.org/dc/elements/1.1/"
   xmlns:cc="http://creativecommons.org/ns#"
   xmlns:rdf="http://www.w3.org/1999/02/22-rdf-syntax-ns#"
   xmlns:svg="http://www.w3.org/2000/svg"
   xmlns="http://www.w3.org/2000/svg"
   xmlns:sodipodi="http://sodipodi.sourceforge.net/DTD/sodipodi-0.dtd"
   xmlns:inkscape="http://www.inkscape.org/namespaces/inkscape"
   height="480.62939"
   width="480.98349"
   version="1.1"
   id="svg"
   sodipodi:docname="logo_spektral.svg"
   inkscape:version="0.92.4 (f8dce91, 2019-08-02)">
  <sodipodi:namedview
     pagecolor="#ffffff"
     bordercolor="#666666"
     borderopacity="1"
     objecttolerance="10"
     gridtolerance="10"
     guidetolerance="10"
     inkscape:pageopacity="0"
     inkscape:pageshadow="2"
     inkscape:window-width="1871"
     inkscape:window-height="1056"
     id="namedview7"
     showgrid="false"
     inkscape:zoom="0.53077912"
     inkscape:cx="199.99174"
     inkscape:cy="222.3147"
     inkscape:window-x="49"
     inkscape:window-y="24"
     inkscape:window-maximized="1"
     inkscape:current-layer="svg" />
  <metadata
     id="metadata9">
    <rdf:RDF>
      <cc:Work
         rdf:about="">
        <dc:format>image/svg+xml</dc:format>
        <dc:type
           rdf:resource="http://purl.org/dc/dcmitype/StillImage" />
        <dc:title></dc:title>
      </cc:Work>
    </rdf:RDF>
  </metadata>
  <defs
     id="defs7" />
  <g
     style="fill:#333333;fill-opacity:1"
     transform="translate(40.484985,17.969335)"
     id="svgg">
    <path
       style="fill:#333333;fill-opacity:1;fill-rule:evenodd;stroke:none"
       d="M 188.426,0.559 C 86.468,8.112 9.44,81.886 0.977,180.093 c -1.265,14.677 -1.29,203.325 -0.03,223.082 1.925,30.177 7.493,40.454 21.985,40.586 7.459,0.068 10.02,-1.571 21.846,-13.984 35.629,-37.395 41.273,-39.072 58.428,-17.365 3.584,4.536 9.016,11.395 12.072,15.243 19.543,24.615 36.692,22.515 57.054,-6.986 21.099,-30.569 33.347,-30.436 57.757,0.627 25.859,32.908 40.883,31.464 72.246,-6.944 18.011,-22.057 24.208,-21.449 45.959,4.507 18.736,22.36 22.04,25.031 30.846,24.949 11.214,-0.106 15.663,-4.847 18.663,-19.889 1.954,-9.795 3.089,-220.725 1.305,-242.438 C 390.308,74.393 295.125,-7.345 188.426,0.559 m -12.987,130.394 c 36.641,13.922 46.716,60.421 18.999,87.689 -30.287,29.797 -80.647,14.088 -89.447,-27.901 -8.279,-39.503 32.577,-74.177 70.448,-59.788 m 162.037,0 c 36.641,13.922 46.716,60.421 18.999,87.689 -30.287,29.797 -80.647,14.088 -89.447,-27.901 -8.279,-39.503 32.577,-74.177 70.448,-59.788 m -167.673,26.756 c -24.073,9.08 -19.9,44.958 5.533,47.563 17.322,1.775 31.038,-14.651 26.181,-31.356 -3.795,-13.057 -19.197,-20.928 -31.714,-16.207 m 162.037,0 c -24.073,9.08 -19.9,44.958 5.533,47.563 17.322,1.775 31.038,-14.651 26.181,-31.356 -3.795,-13.057 -19.197,-20.928 -31.714,-16.207"
       id="path0"
       inkscape:connector-curvature="0" />
  </g>
</svg>
