<?xml version="1.0" encoding="UTF-8" standalone="no"?>
<!-- Created with Inkscape (http://www.inkscape.org/) -->

<svg
   xmlns:dc="http://purl.org/dc/elements/1.1/"
   xmlns:cc="http://creativecommons.org/ns#"
   xmlns:rdf="http://www.w3.org/1999/02/22-rdf-syntax-ns#"
   xmlns:svg="http://www.w3.org/2000/svg"
   xmlns="http://www.w3.org/2000/svg"
   xmlns:sodipodi="http://sodipodi.sourceforge.net/DTD/sodipodi-0.dtd"
   xmlns:inkscape="http://www.inkscape.org/namespaces/inkscape"
   width="17.61722mm"
   height="18.051559mm"
   viewBox="0 0 17.617219 18.051559"
   version="1.1"
   id="svg8"
   inkscape:version="0.92.3 (2405546, 2018-03-11)"
   sodipodi:docname="logo.svg">
  <defs
     id="defs2">
    <filter
       inkscape:collect="always"
       style="color-interpolation-filters:sRGB"
       id="filter1360"
       x="-0.0069640777"
       width="1.0139282"
       y="-0.043341387"
       height="1.0866828">
      <feGaussianBlur
         inkscape:collect="always"
         stdDeviation="0.028241918"
         id="feGaussianBlur1362" />
    </filter>
    <filter
       inkscape:collect="always"
       style="color-interpolation-filters:sRGB"
       id="filter1498"
       x="-0.018906195"
       width="1.0378124"
       y="-0.04008133"
       height="1.0801626">
      <feGaussianBlur
         inkscape:collect="always"
         stdDeviation="0.59543703"
         id="feGaussianBlur1500" />
    </filter>
    <filter
       inkscape:collect="always"
       style="color-interpolation-filters:sRGB"
       id="filter1506"
       x="-0.055062994"
       width="1.110126"
       y="-0.018703623"
       height="1.0374072">
      <feGaussianBlur
         inkscape:collect="always"
         stdDeviation="0.59543703"
         id="feGaussianBlur1508" />
    </filter>
    <filter
       inkscape:collect="always"
       style="color-interpolation-filters:sRGB"
       id="filter1557"
       x="-0.012"
       width="1.024"
       y="-0.012"
       height="1.024">
      <feGaussianBlur
         inkscape:collect="always"
         stdDeviation="0.030912"
         id="feGaussianBlur1559" />
    </filter>
    <filter
       inkscape:collect="always"
       style="color-interpolation-filters:sRGB"
       id="filter1614"
       x="-0.023396958"
       width="1.0467939"
       y="-0.027304143"
       height="1.0546083">
      <feGaussianBlur
         inkscape:collect="always"
         stdDeviation="0.60833461"
         id="feGaussianBlur1616" />
    </filter>
    <filter
       inkscape:collect="always"
       style="color-interpolation-filters:sRGB"
       id="filter1678"
       x="-0.038740236"
       width="1.0774806"
       y="-0.038740315"
       height="1.0774806">
      <feGaussianBlur
         inkscape:collect="always"
         stdDeviation="0.083397725"
         id="feGaussianBlur1680" />
    </filter>
    <filter
       inkscape:collect="always"
       style="color-interpolation-filters:sRGB"
       id="filter1682"
       x="-0.032374892"
       width="1.0647498"
       y="-0.032374892"
       height="1.0647498">
      <feGaussianBlur
         inkscape:collect="always"
         stdDeviation="0.083397725"
         id="feGaussianBlur1684" />
    </filter>
    <filter
       inkscape:collect="always"
       style="color-interpolation-filters:sRGB"
       id="filter1686"
       x="-0.038740236"
       width="1.0774806"
       y="-0.038740236"
       height="1.0774806">
      <feGaussianBlur
         inkscape:collect="always"
         stdDeviation="0.083397725"
         id="feGaussianBlur1688" />
    </filter>
  </defs>
  <sodipodi:namedview
     id="base"
     pagecolor="#ffffff"
     bordercolor="#666666"
     borderopacity="1.0"
     inkscape:pageopacity="0.0"
     inkscape:pageshadow="2"
     inkscape:zoom="0.12374369"
     inkscape:cx="850.45403"
     inkscape:cy="46.114099"
     inkscape:document-units="mm"
     inkscape:current-layer="layer1"
     showgrid="false"
     showguides="true"
     inkscape:guide-bbox="true"
     inkscape:window-width="1920"
     inkscape:window-height="1025"
     inkscape:window-x="1920"
     inkscape:window-y="459"
     inkscape:window-maximized="1"
     inkscape:pagecheckerboard="true"
     fit-margin-top="0"
     fit-margin-left="0"
     fit-margin-right="0"
     fit-margin-bottom="0" />
  <metadata
     id="metadata5">
    <rdf:RDF>
      <cc:Work
         rdf:about="">
        <dc:format>image/svg+xml</dc:format>
        <dc:type
           rdf:resource="http://purl.org/dc/dcmitype/StillImage" />
        <dc:title></dc:title>
      </cc:Work>
    </rdf:RDF>
  </metadata>
  <g
     inkscape:label="Layer 1"
     inkscape:groupmode="layer"
     id="layer1"
     transform="translate(800.39459,-543.6848)">
    <g
       id="g1586"
       transform="translate(6.3083876,-7.6030972)">
      <g
         id="g1596">
        <g
           id="g1697"
           transform="translate(-6.1471991,7.4167293)">
          <path
             transform="matrix(-0.06258728,0.10840435,-0.10840435,-0.06258728,-806.00503,587.98798)"
             inkscape:connector-curvature="0"
             id="path864-2-1-2-5-4-4-7"
             d="m -293.88867,-19.292969 a 4.0004,4.0004 0 0 0 4.05664,3.939453 c 25.16641,0 46.55591,18.2183933 50.55859,43.064454 a 4.0004,4.0004 0 1 0 7.89649,-1.271485 c -4.61838,-28.6679504 -29.41751,-49.792969 -58.45508,-49.792969 a 4.0004,4.0004 0 0 0 -4.05664,4.060547 z"
             style="color:#000000;font-style:normal;font-variant:normal;font-weight:normal;font-stretch:normal;font-size:medium;line-height:normal;font-family:sans-serif;font-variant-ligatures:normal;font-variant-position:normal;font-variant-caps:normal;font-variant-numeric:normal;font-variant-alternates:normal;font-feature-settings:normal;text-indent:0;text-align:start;text-decoration:none;text-decoration-line:none;text-decoration-style:solid;text-decoration-color:#000000;letter-spacing:normal;word-spacing:normal;text-transform:none;writing-mode:lr-tb;direction:ltr;text-orientation:mixed;dominant-baseline:auto;baseline-shift:baseline;text-anchor:start;white-space:normal;shape-padding:0;clip-rule:nonzero;display:inline;overflow:visible;visibility:visible;opacity:1;isolation:auto;mix-blend-mode:normal;color-interpolation:sRGB;color-interpolation-filters:linearRGB;solid-color:#000000;solid-opacity:1;vector-effect:none;fill:#4c4c4c;fill-opacity:1;fill-rule:nonzero;stroke:none;stroke-width:8;stroke-linecap:round;stroke-linejoin:round;stroke-miterlimit:4;stroke-dasharray:none;stroke-dashoffset:0;stroke-opacity:1;paint-order:stroke fill markers;filter:url(#filter1498);color-rendering:auto;image-rendering:auto;shape-rendering:auto;text-rendering:auto;enable-background:accumulate" />
          <path
             style="color:#000000;font-style:normal;font-variant:normal;font-weight:normal;font-stretch:normal;font-size:medium;line-height:normal;font-family:sans-serif;font-variant-ligatures:normal;font-variant-position:normal;font-variant-caps:normal;font-variant-numeric:normal;font-variant-alternates:normal;font-feature-settings:normal;text-indent:0;text-align:start;text-decoration:none;text-decoration-line:none;text-decoration-style:solid;text-decoration-color:#000000;letter-spacing:normal;word-spacing:normal;text-transform:none;writing-mode:lr-tb;direction:ltr;text-orientation:mixed;dominant-baseline:auto;baseline-shift:baseline;text-anchor:start;white-space:normal;shape-padding:0;clip-rule:nonzero;display:inline;overflow:visible;visibility:visible;opacity:1;isolation:auto;mix-blend-mode:normal;color-interpolation:sRGB;color-interpolation-filters:linearRGB;solid-color:#000000;solid-opacity:1;vector-effect:none;fill:#4c4c4c;fill-opacity:1;fill-rule:nonzero;stroke:none;stroke-width:8;stroke-linecap:round;stroke-linejoin:round;stroke-miterlimit:4;stroke-dasharray:none;stroke-dashoffset:0;stroke-opacity:1;paint-order:stroke fill markers;filter:url(#filter1614);color-rendering:auto;image-rendering:auto;shape-rendering:auto;text-rendering:auto;enable-background:accumulate"
             d="m -293.88867,-19.292969 a 4.0004,4.0004 0 0 0 4.05664,3.939453 c 24.793,0 45.97999,17.6985324 50.39258,42.095704 a 4.0004,4.0004 0 1 0 7.87109,-1.423829 c -5.09188,-28.1530025 -29.6539,-48.671875 -58.26367,-48.671875 a 4.0004,4.0004 0 0 0 -4.05664,4.060547 z"
             id="path864-2-0-5-1-1"
             inkscape:connector-curvature="0"
             transform="matrix(0.12517456,0,0,0.12517456,-755.46614,549.73119)" />
          <path
             style="color:#000000;font-style:normal;font-variant:normal;font-weight:normal;font-stretch:normal;font-size:medium;line-height:normal;font-family:sans-serif;font-variant-ligatures:normal;font-variant-position:normal;font-variant-caps:normal;font-variant-numeric:normal;font-variant-alternates:normal;font-feature-settings:normal;text-indent:0;text-align:start;text-decoration:none;text-decoration-line:none;text-decoration-style:solid;text-decoration-color:#000000;letter-spacing:normal;word-spacing:normal;text-transform:none;writing-mode:lr-tb;direction:ltr;text-orientation:mixed;dominant-baseline:auto;baseline-shift:baseline;text-anchor:start;white-space:normal;shape-padding:0;clip-rule:nonzero;display:inline;overflow:visible;visibility:visible;opacity:1;isolation:auto;mix-blend-mode:normal;color-interpolation:sRGB;color-interpolation-filters:linearRGB;solid-color:#000000;solid-opacity:1;vector-effect:none;fill:#4c4c4c;fill-opacity:1;fill-rule:nonzero;stroke:none;stroke-width:8;stroke-linecap:round;stroke-linejoin:round;stroke-miterlimit:4;stroke-dasharray:none;stroke-dashoffset:0;stroke-opacity:1;paint-order:stroke fill markers;filter:url(#filter1506);color-rendering:auto;image-rendering:auto;shape-rendering:auto;text-rendering:auto;enable-background:accumulate"
             d="m -293.88867,-19.292969 a 4.0004,4.0004 0 0 0 4.05664,3.939453 c 24.0272,0 44.78304,16.651695 49.99219,40.107422 a 4.0004,4.0004 0 1 0 7.80859,-1.734375 c -6.01232,-27.0722234 -30.06897,-46.373047 -57.80078,-46.373047 a 4.0004,4.0004 0 0 0 -4.05664,4.060547 z"
             id="path864-2-1-1-8-5-0"
             inkscape:connector-curvature="0"
             transform="matrix(-0.06258728,-0.10840435,0.10840435,-0.06258728,-813.94372,525.10345)" />
          <path
             id="path817-4-7-5-2-91-9"
             d="m -788.70916,547.16809 a 3.0911956,3.0911956 0 0 1 -3.0912,3.0912 3.0911956,3.0911956 0 0 1 -3.0912,-3.0912 3.0911956,3.0911956 0 0 1 3.0912,-3.0912 3.0911956,3.0911956 0 0 1 3.0912,3.0912 z"
             style="opacity:1;fill:#4c4c4c;fill-opacity:1;stroke:none;stroke-width:1.19661188;stroke-linecap:round;stroke-linejoin:round;stroke-miterlimit:4;stroke-dasharray:none;stroke-dashoffset:0;stroke-opacity:1;paint-order:stroke fill markers;filter:url(#filter1682)"
             inkscape:connector-curvature="0" />
          <path
             inkscape:connector-curvature="0"
             id="path817-7-1-2-03"
             d="m -795.22797,557.63552 a 2.5832899,2.5832899 0 0 1 -2.58329,2.58329 2.5832899,2.5832899 0 0 1 -2.58329,-2.58329 2.5832899,2.5832899 0 0 1 2.58329,-2.58329 2.5832899,2.5832899 0 0 1 2.58329,2.58329 z"
             style="opacity:1;fill:#4c4c4c;fill-opacity:1;stroke:none;stroke-width:0.30041894;stroke-linecap:round;stroke-linejoin:round;stroke-miterlimit:4;stroke-dasharray:none;stroke-dashoffset:0;stroke-opacity:1;paint-order:stroke fill markers;filter:url(#filter1686)" />
          <path
             inkscape:connector-curvature="0"
             id="path817-2-0-3-2-5"
             d="m -783.17738,557.63076 a 2.5832899,2.5832899 0 0 1 -2.58329,2.58328 2.5832899,2.5832899 0 0 1 -2.58329,-2.58328 2.5832899,2.5832899 0 0 1 2.58329,-2.58329 2.5832899,2.5832899 0 0 1 2.58329,2.58329 z"
             style="opacity:1;fill:#4c4c4c;fill-opacity:1;stroke:none;stroke-width:0.30041894;stroke-linecap:round;stroke-linejoin:round;stroke-miterlimit:4;stroke-dasharray:none;stroke-dashoffset:0;stroke-opacity:1;paint-order:stroke fill markers;filter:url(#filter1678)" />
        </g>
      </g>
    </g>
    <g
       id="g1575"
       transform="translate(0.16118849,-0.18636795)">
      <g
         style="stroke:#afd6fd;stroke-width:8;stroke-miterlimit:4;stroke-dasharray:none;stroke-opacity:1"
         id="g1262-2-3-4"
         transform="matrix(0.12517456,0,0,0.12517456,-755.46614,549.73119)">
        <path
           inkscape:connector-curvature="0"
           id="path864-2-0-5-1"
           d="m -293.88867,-19.292969 a 4.0004,4.0004 0 0 0 4.05664,3.939453 c 24.793,0 45.97999,17.6985324 50.39258,42.095704 a 4.0004,4.0004 0 1 0 7.87109,-1.423829 c -5.09188,-28.1530025 -29.6539,-48.671875 -58.26367,-48.671875 a 4.0004,4.0004 0 0 0 -4.05664,4.060547 z"
           style="color:#000000;font-style:normal;font-variant:normal;font-weight:normal;font-stretch:normal;font-size:medium;line-height:normal;font-family:sans-serif;font-variant-ligatures:normal;font-variant-position:normal;font-variant-caps:normal;font-variant-numeric:normal;font-variant-alternates:normal;font-feature-settings:normal;text-indent:0;text-align:start;text-decoration:none;text-decoration-line:none;text-decoration-style:solid;text-decoration-color:#000000;letter-spacing:normal;word-spacing:normal;text-transform:none;writing-mode:lr-tb;direction:ltr;text-orientation:mixed;dominant-baseline:auto;baseline-shift:baseline;text-anchor:start;white-space:normal;shape-padding:0;clip-rule:nonzero;display:inline;overflow:visible;visibility:visible;opacity:1;isolation:auto;mix-blend-mode:normal;color-interpolation:sRGB;color-interpolation-filters:linearRGB;solid-color:#000000;solid-opacity:1;vector-effect:none;fill:#afd6fd;fill-opacity:1;fill-rule:nonzero;stroke:none;stroke-width:8;stroke-linecap:round;stroke-linejoin:round;stroke-miterlimit:4;stroke-dasharray:none;stroke-dashoffset:0;stroke-opacity:1;paint-order:stroke fill markers;color-rendering:auto;image-rendering:auto;shape-rendering:auto;text-rendering:auto;enable-background:accumulate" />
      </g>
      <g
         style="stroke:#afd6fd;stroke-width:8;stroke-miterlimit:4;stroke-dasharray:none;stroke-opacity:1"
         transform="matrix(-0.06258728,-0.10840435,0.10840435,-0.06258728,-813.94372,525.10345)"
         id="g1262-0-3-0-9">
        <path
           inkscape:connector-curvature="0"
           id="path864-2-1-1-8-5"
           d="m -293.88867,-19.292969 a 4.0004,4.0004 0 0 0 4.05664,3.939453 c 24.0272,0 44.78304,16.651695 49.99219,40.107422 a 4.0004,4.0004 0 1 0 7.80859,-1.734375 c -6.01232,-27.0722234 -30.06897,-46.373047 -57.80078,-46.373047 a 4.0004,4.0004 0 0 0 -4.05664,4.060547 z"
           style="color:#000000;font-style:normal;font-variant:normal;font-weight:normal;font-stretch:normal;font-size:medium;line-height:normal;font-family:sans-serif;font-variant-ligatures:normal;font-variant-position:normal;font-variant-caps:normal;font-variant-numeric:normal;font-variant-alternates:normal;font-feature-settings:normal;text-indent:0;text-align:start;text-decoration:none;text-decoration-line:none;text-decoration-style:solid;text-decoration-color:#000000;letter-spacing:normal;word-spacing:normal;text-transform:none;writing-mode:lr-tb;direction:ltr;text-orientation:mixed;dominant-baseline:auto;baseline-shift:baseline;text-anchor:start;white-space:normal;shape-padding:0;clip-rule:nonzero;display:inline;overflow:visible;visibility:visible;opacity:1;isolation:auto;mix-blend-mode:normal;color-interpolation:sRGB;color-interpolation-filters:linearRGB;solid-color:#000000;solid-opacity:1;vector-effect:none;fill:#afd6fd;fill-opacity:1;fill-rule:nonzero;stroke:none;stroke-width:8;stroke-linecap:round;stroke-linejoin:round;stroke-miterlimit:4;stroke-dasharray:none;stroke-dashoffset:0;stroke-opacity:1;paint-order:stroke fill markers;color-rendering:auto;image-rendering:auto;shape-rendering:auto;text-rendering:auto;enable-background:accumulate" />
      </g>
      <g
         style="stroke:#afd6fd;stroke-width:8;stroke-miterlimit:4;stroke-dasharray:none;stroke-opacity:1"
         transform="matrix(-0.06258728,0.10840435,-0.10840435,-0.06258728,-806.00503,587.98798)"
         id="g1262-0-6-0-0-7">
        <path
           inkscape:connector-curvature="0"
           id="path864-2-1-2-5-4-4"
           d="m -293.88867,-19.292969 a 4.0004,4.0004 0 0 0 4.05664,3.939453 c 25.16641,0 46.55591,18.2183933 50.55859,43.064454 a 4.0004,4.0004 0 1 0 7.89649,-1.271485 c -4.61838,-28.6679504 -29.41751,-49.792969 -58.45508,-49.792969 a 4.0004,4.0004 0 0 0 -4.05664,4.060547 z"
           style="color:#000000;font-style:normal;font-variant:normal;font-weight:normal;font-stretch:normal;font-size:medium;line-height:normal;font-family:sans-serif;font-variant-ligatures:normal;font-variant-position:normal;font-variant-caps:normal;font-variant-numeric:normal;font-variant-alternates:normal;font-feature-settings:normal;text-indent:0;text-align:start;text-decoration:none;text-decoration-line:none;text-decoration-style:solid;text-decoration-color:#000000;letter-spacing:normal;word-spacing:normal;text-transform:none;writing-mode:lr-tb;direction:ltr;text-orientation:mixed;dominant-baseline:auto;baseline-shift:baseline;text-anchor:start;white-space:normal;shape-padding:0;clip-rule:nonzero;display:inline;overflow:visible;visibility:visible;opacity:1;isolation:auto;mix-blend-mode:normal;color-interpolation:sRGB;color-interpolation-filters:linearRGB;solid-color:#000000;solid-opacity:1;vector-effect:none;fill:#afd6fd;fill-opacity:1;fill-rule:nonzero;stroke:none;stroke-width:8;stroke-linecap:round;stroke-linejoin:round;stroke-miterlimit:4;stroke-dasharray:none;stroke-dashoffset:0;stroke-opacity:1;paint-order:stroke fill markers;color-rendering:auto;image-rendering:auto;shape-rendering:auto;text-rendering:auto;enable-background:accumulate" />
      </g>
      <path
         id="path817-4-7-5-2"
         d="m -789.21706,547.16809 a 2.5832901,2.5832901 0 0 1 -2.58329,2.58329 2.5832901,2.5832901 0 0 1 -2.58329,-2.58329 2.5832901,2.5832901 0 0 1 2.58329,-2.58329 2.5832901,2.5832901 0 0 1 2.58329,2.58329 z"
         style="opacity:1;fill:#ffffff;fill-opacity:1;stroke:#afd6fd;stroke-width:1;stroke-linecap:round;stroke-linejoin:round;stroke-miterlimit:4;stroke-dasharray:none;stroke-dashoffset:0;stroke-opacity:1;paint-order:stroke fill markers"
         inkscape:connector-curvature="0" />
      <path
         id="path817-7-1-2"
         d="m -795.22799,557.6355 a 2.5832899,2.5832899 0 0 1 -2.58329,2.58329 2.5832899,2.5832899 0 0 1 -2.58329,-2.58329 2.5832899,2.5832899 0 0 1 2.58329,-2.58329 2.5832899,2.5832899 0 0 1 2.58329,2.58329 z"
         style="opacity:1;fill:#afd6fd;fill-opacity:1;stroke:none;stroke-width:0.30041894;stroke-linecap:round;stroke-linejoin:round;stroke-miterlimit:4;stroke-dasharray:none;stroke-dashoffset:0;stroke-opacity:1;paint-order:stroke fill markers"
         inkscape:connector-curvature="0" />
      <g
         id="text821-7-3-2"
         style="font-style:normal;font-variant:normal;font-weight:normal;font-stretch:normal;font-size:3.94200206px;line-height:1.25;font-family:ubuntu;-inkscape-font-specification:ubuntu;letter-spacing:0px;word-spacing:0px;fill:#ffffff;fill-opacity:1;stroke:none;stroke-width:0.09855005"
         aria-label="m">
        <path
           id="path1051"
           style="font-style:normal;font-variant:normal;font-weight:bold;font-stretch:normal;font-family:'Source Sans Pro';-inkscape-font-specification:'Source Sans Pro Bold';fill:#ffffff;fill-opacity:1;stroke-width:0.09855005"
           d="m -799.30719,558.69714 h 0.57948 v -1.32057 c 0.1222,-0.12614 0.23652,-0.18921 0.33113,-0.18921 0.16556,0 0.24046,0.0867 0.24046,0.37054 v 1.13924 h 0.57947 v -1.32057 c 0.12615,-0.12614 0.23652,-0.18921 0.33507,-0.18921 0.16557,0 0.24047,0.0867 0.24047,0.37054 v 1.13924 h 0.57947 v -1.21413 c 0,-0.48881 -0.18922,-0.7884 -0.61101,-0.7884 -0.26017,0 -0.4415,0.14979 -0.61495,0.32718 -0.0985,-0.20892 -0.26412,-0.32718 -0.54006,-0.32718 -0.25623,0 -0.42968,0.13797 -0.5913,0.29959 h -0.0158 l -0.0394,-0.25229 h -0.47304 z"
           inkscape:connector-curvature="0" />
      </g>
      <path
         id="path817-2-0-3-2"
         d="m -783.17739,557.63074 a 2.5832899,2.5832899 0 0 1 -2.58329,2.58329 2.5832899,2.5832899 0 0 1 -2.58329,-2.58329 2.5832899,2.5832899 0 0 1 2.58329,-2.58329 2.5832899,2.5832899 0 0 1 2.58329,2.58329 z"
         style="opacity:1;fill:#afd6fd;fill-opacity:1;stroke:none;stroke-width:0.30041894;stroke-linecap:round;stroke-linejoin:round;stroke-miterlimit:4;stroke-dasharray:none;stroke-dashoffset:0;stroke-opacity:1;paint-order:stroke fill markers"
         inkscape:connector-curvature="0" />
      <g
         id="text821-5-6-4-0"
         style="font-style:normal;font-variant:normal;font-weight:normal;font-stretch:normal;font-size:3.94200253px;line-height:1.25;font-family:ubuntu;-inkscape-font-specification:ubuntu;letter-spacing:0px;word-spacing:0px;fill:#ffffff;fill-opacity:1;stroke:none;stroke-width:0.09855005"
         aria-label="l">
        <path
           id="path1048"
           style="font-style:normal;font-variant:normal;font-weight:bold;font-stretch:normal;font-family:'Source Sans Pro';-inkscape-font-specification:'Source Sans Pro Bold';fill:#ffffff;fill-opacity:1;stroke-width:0.09855005"
           d="m -785.50207,559.13721 c 0.13009,0 0.22864,-0.0197 0.29171,-0.0473 l -0.0709,-0.42967 c -0.0315,0.008 -0.0473,0.008 -0.071,0.008 -0.0473,0 -0.10249,-0.0394 -0.10249,-0.16162 v -2.17993 h -0.57948 v 2.15628 c 0,0.3942 0.13403,0.65437 0.53217,0.65437 z"
           inkscape:connector-curvature="0" />
      </g>
      <path
         d="m -792.02974,548.80082 c 0.67014,0 1.09194,-0.29565 1.09194,-0.70168 0,-0.35084 -0.26412,-0.49669 -0.74504,-0.49669 h -0.31536 c -0.21681,0 -0.29565,-0.0473 -0.29565,-0.14586 0,-0.067 0.0197,-0.10249 0.071,-0.14585 0.0867,0.0276 0.16557,0.0394 0.23652,0.0394 0.42968,0 0.76869,-0.20893 0.76869,-0.65831 0,-0.1025 -0.0276,-0.1971 -0.0631,-0.25623 h 0.31142 v -0.4218 h -0.7135 c -0.0867,-0.0315 -0.19316,-0.0473 -0.30354,-0.0473 -0.42179,0 -0.80811,0.23652 -0.80811,0.70562 0,0.22863 0.12615,0.41391 0.26412,0.50851 v 0.0158 c -0.12615,0.0867 -0.22076,0.2247 -0.22076,0.36661 0,0.16162 0.0788,0.26411 0.18134,0.33113 v 0.0158 c -0.18134,0.10249 -0.27989,0.23257 -0.27989,0.3942 0,0.34689 0.36267,0.49669 0.81994,0.49669 z m 0.0434,-1.8015 c -0.15374,0 -0.26805,-0.11037 -0.26805,-0.32718 0,-0.20893 0.11431,-0.31536 0.26805,-0.31536 0.15374,0 0.26806,0.11037 0.26806,0.31536 0,0.21681 -0.11432,0.32718 -0.26806,0.32718 z m 0.0473,1.43883 c -0.26018,0 -0.43362,-0.0788 -0.43362,-0.22469 0,-0.071 0.0355,-0.13009 0.10643,-0.19316 0.0631,0.0158 0.14191,0.0236 0.27594,0.0236 h 0.20104 c 0.19316,0 0.2996,0.0315 0.2996,0.15374 0,0.13403 -0.18922,0.24046 -0.44939,0.24046 z"
         style="font-style:normal;font-variant:normal;font-weight:bold;font-stretch:normal;font-size:medium;line-height:1.25;font-family:'Source Sans Pro';-inkscape-font-specification:'Source Sans Pro Bold';letter-spacing:0px;word-spacing:0px;fill:#afd6fd;fill-opacity:1;stroke:none;stroke-width:0.09855006"
         id="path1054"
         inkscape:connector-curvature="0" />
    </g>
    <g
       style="font-style:normal;font-variant:normal;font-weight:normal;font-stretch:normal;font-size:3.94200277px;line-height:1.25;font-family:ubuntu;-inkscape-font-specification:ubuntu;letter-spacing:0px;word-spacing:0px;opacity:0.67000002;fill:#afd6fd;fill-opacity:1;stroke:#000000;stroke-width:8;stroke-miterlimit:4;stroke-dasharray:none;stroke-opacity:0.98617512"
       transform="matrix(-0.06258728,-0.10840435,0.10840435,-0.06258728,-770.86373,526.13011)"
       id="g1262-0-3-0-9-9-0" />
  </g>
</svg>
